# xmcd CD database file
#
# Track frame offsets:
#	150
#	1282
#	14975
#	29004
#	43625
#	58446
#	68830
#	79519
#	97143
#	115002
#	133303
#	151850
#	169537
#	187697
#	204935
#	222400
#	234432
#	246662
#	262079
#	277699
#	294212
#	310963
#	325056
#
# Disc length: 4524 seconds
#
# Revision: 0
# Processed by: cddbd v1.5.2PL0 Copyright (c) Steve Scherf et al.
# Submitted via: CDex 1.70beta2
#
DISCID=4b11aa17
DTITLE=Belwin Jazz Big Band - Sittin' in with the Big Band - Tenor Saxophone
DYEAR=2006
DGENRE=Big Band - Playalong
TTITLE0=Tune to Bb concert
TTITLE1=Vehicle
TTITLE2=Vehicle MMO
TTITLE3=Sax to the Max
TTITLE4=Sax to the Max MMO
TTITLE5=Nutcracker Rock
TTITLE6=Nutcracker Rock MMO
TTITLE7=Fiesta Latina
TTITLE8=Fiesta Latina MMO
TTITLE9=Now What
TTITLE10=Now What MMO
TTITLE11=Goodbye My Heart
TTITLE12=Goodbye My Heart MMO
TTITLE13=Two and a Half Men
TTITLE14=Two and a Half Men MMO
TTITLE15=Burritos to Go
TTITLE16=Burritos to Go MMO
TTITLE17=Drummin' Man
TTITLE18=Drummin' Man MMO
TTITLE19=Swingin' Shanty
TTITLE20=Swingin' Shanty MMO
TTITLE21=Play That Funky Music
TTITLE22=Play That Funky Music MMO
EXTD=YEAR: 2006
EXTT0=
EXTT1=
EXTT2=
EXTT3=
EXTT4=
EXTT5=
EXTT6=
EXTT7=
EXTT8=
EXTT9=
EXTT10=
EXTT11=
EXTT12=
EXTT13=
EXTT14=
EXTT15=
EXTT16=
EXTT17=
EXTT18=
EXTT19=
EXTT20=
EXTT21=
EXTT22=
PLAYORDER=
